:SAMPLES-PER-SECOND 30
:FULLY-SPECIFIED
:DEGREES
722
root  43.6076 39.4282 14.194 -5.33847 -79.8148 3.01997
RightUpLeg  7.21993 -8.95596 -3.38969
RightLeg  14.6987 7.20479 4.32408
RightFoot  -17.475 -0.320978 -3.79586
RightToes  0.00048216 0.542163 -0.142577
Spine  7.56464 0.477481 5.18723
Spine1  9.60534 1.62162 -2.66872
HEad  -5.06458 -15.0996 3.92229
LeftShoulder1  7.69171 -11.7981 -43.7418
LeftArm  -5.66289 19.1323 -28.4307
LeftForeArm  33.5408 -27.4257 -4.10573
LeftHand  -0.25398 0.0180481 5.50724
RightShoulder  4.66953 8.00043 34.6336
RightArm  10.2825 4.77406 42.9528
RightForeArm  7.63545 36.0124 7.70947
RightHand  -1.325 3.86804 -16.8286
LeftUpLeg  -19.8722 8.00045 3.1824
LeftLeg  5.65571 4.15463 -2.25712
LeftFoot  0.58066 0.205382 -2.01622
LeftToes  1.06247e-005 4.65855e-005 -8.18501e-006
723
root  42.2027 39.2487 14.8372 -9.657 -80.8015 7.18529
RightUpLeg  10.0001 -9.27053 -5.25114
RightLeg  14.4333 9.17668 4.10798
RightFoot  -18.8672 -0.322456 -2.97159
RightToes  0.00048216 0.542163 -0.142577
Spine  7.35309 0.549262 4.18589
Spine1  10.2006 1.89751 -3.411
HEad  -5.12009 -15.0138 4.29372
LeftShoulder1  7.59098 -11.683 -43.482
LeftArm  -5.29566 20.2409 -28.3521
LeftForeArm  32.6115 -25.4291 -3.71852
LeftHand  -0.25398 0.0180481 5.50724
RightShoulder  4.74894 8.18508 34.6716
RightArm  11.6552 5.42135 43.5621
RightForeArm  8.31805 35.2859 7.46335
RightHand  -1.27419 3.6937 -16.4996
LeftUpLeg  -18.0018 4.00982 4.91223
LeftLeg  -2.87459 12.4401 -4.90519
LeftFoot  -0.772389 0.268622 -2.83624
LeftToes  1.06247e-005 4.65855e-005 -8.18501e-006
724
root  40.722 39.0141 15.5729 -14.5721 -81.2445 11.9964
RightUpLeg  12.2539 -9.28039 -7.13962
RightLeg  15.3465 10.2507 3.626
RightFoot  -19.9325 -0.255505 -1.60335
RightToes  0.00048216 0.542163 -0.142577
Spine  7.09397 0.519607 3.34985
Spine1  10.5412 2.1032 -4.17519
HEad  -4.86395 -15.2207 4.68558
LeftShoulder1  7.5244 -11.6242 -43.2555
LeftArm  -4.57169 21.1848 -28.3142
LeftForeArm  31.633 -22.9001 -3.37241
LeftHand  -0.25398 0.0180481 5.50724
RightShoulder  4.79451 8.28568 34.7109
RightArm  12.1644 4.91591 43.9879
RightForeArm  8.75411 34.2223 7.14416
RightHand  -1.27286 3.80816 -16.2884
LeftUpLeg  -17.9337 4.42239 3.96758
LeftLeg  -3.38329 17.8689 -5.92015
LeftFoot  -0.950814 0.219876 -2.37185
LeftToes  1.06247e-005 4.65855e-005 -8.18501e-006
725
root  39.1567 38.7575 16.3776 -19.817 -81.2023 17.0251
RightUpLeg  14.2952 -8.34201 -8.99479
RightLeg  17.1868 10.0644 3.21299
RightFoot  -20.4661 -0.104168 0.394638
RightToes  0.00048216 0.542163 -0.142577
Spine  6.95978 0.576589 2.32576
Spine1  10.5326 2.21628 -4.4313
HEad  -4.55819 -15.6486 5.03162
LeftShoulder1  7.51636 -11.5694 -43.3726
LeftArm  -4.64712 21.8659 -28.0296
LeftForeArm  31.9205 -20.1991 -3.52491
LeftHand  -0.25398 0.0180481 5.50724
RightShoulder  4.83467 8.31658 34.9408
RightArm  11.9756 3.37163 43.8533
RightForeArm  8.6679 32.9128 6.79963
RightHand  -1.3093 4.10168 -16.2487
LeftUpLeg  -18.8287 4.80797 2.29133
LeftLeg  1.80397 20.6127 -4.72712
LeftFoot  2.27707 0.0139044 -0.310823
LeftToes  1.06247e-005 4.65855e-005 -8.18501e-006
726
root  37.5228 38.5074 17.1997 -25.2163 -80.6061 21.9082
RightUpLeg  16.0927 -5.92934 -10.6046
RightLeg  20.1512 8.7826 3.18082
RightFoot  -20.2266 0.189005 4.21144
RightToes  0.00048216 0.542163 -0.142577
Spine  7.0626 0.75501 0.630021
Spine1  10.2904 2.09514 -3.77885
HEad  -4.19782 -16.2828 5.26831
LeftShoulder1  7.53814 -11.4745 -43.7959
LeftArm  -5.86762 22.3506 -27.6539
LeftForeArm  33.2505 -17.5407 -3.98338
LeftHand  -0.25398 0.0180481 5.50724
RightShoulder  4.89201 8.315 35.4229
RightArm  11.4715 1.11071 43.2321
RightForeArm  7.91189 30.8606 6.31848
RightHand  -1.35222 4.35856 -16.3446
LeftUpLeg  -19.837 8.50501 -1.22288
LeftLeg  8.74665 15.0282 -1.83635
LeftFoot  6.74172 -0.377705 2.13757
LeftToes  1.06247e-005 4.65855e-005 -8.18501e-006
727
root  35.9205 38.3885 17.9976 -30.2942 -79.6681 26.4794
RightUpLeg  16.2105 -2.73875 -11.6911
RightLeg  25.4926 6.49235 3.13915
RightFoot  -17.0208 0.325809 9.38107
RightToes  0.00048216 0.542163 -0.142577
Spine  7.40651 0.946175 -1.41912
Spine1  9.88533 1.90518 -2.96013
HEad  -3.67322 -17.0691 5.36932
LeftShoulder1  7.56734 -11.4132 -44.1635
LeftArm  -7.73786 22.707 -27.5012
LeftForeArm  34.4832 -15.0072 -4.37633
LeftHand  -0.25398 0.0180481 5.50724
RightShoulder  4.9407 8.28369 35.9347
RightArm  11.1802 -1.4209 42.7558
RightForeArm  6.11221 27.3021 5.49929
RightHand  -1.42054 4.64291 -16.6818
LeftUpLeg  -20.5476 14.6482 -5.91613
LeftLeg  14.6124 5.65424 0.657302
LeftFoot  7.56449 -0.669149 3.76785
LeftToes  1.06247e-005 4.65855e-005 -8.18501e-006
728
root  34.4198 38.4678 18.7792 -34.866 -79 30.7986
RightUpLeg  13.1249 -0.0647431 -12.3621
RightLeg  34.3767 3.32056 2.13929
RightFoot  -7.98152 -0.393256 12.3013
RightToes  0.00048216 0.542163 -0.142577
Spine  7.82092 1.06888 -2.80235
Spine1  9.45464 1.9078 -2.88391
HEad  -3.16268 -17.6044 5.21129
LeftShoulder1  7.60801 -11.453 -44.2892
LeftArm  -9.30913 22.9267 -27.6073
LeftForeArm  34.7757 -13.1086 -4.5343
LeftHand  -0.25398 0.0180481 5.50724
RightShoulder  4.97141 8.28624 36.1799
RightArm  10.3198 -3.58853 42.8206
RightForeArm  4.60347 22.0483 4.98353
RightHand  -1.43918 4.62926 -16.9316
LeftUpLeg  -19.6937 16.4917 -8.23013
LeftLeg  18.2886 3.42598 1.71729
LeftFoot  4.23761 -0.611327 4.26476
LeftToes  1.06247e-005 4.65855e-005 -8.18501e-006
729
root  33.0424 38.6273 19.5188 -40.4937 -78.8692 36.2961
RightUpLeg  7.27002 2.24625 -12.8548
RightLeg  45.0816 0.323735 0.0503612
RightFoot  4.92874 -1.43919 10.5005
RightToes  0.00048216 0.542163 -0.142577
Spine  8.2642 1.19349 -3.73193
Spine1  9.33132 2.03239 -3.34687
HEad  -2.96752 -17.4159 4.62733
LeftShoulder1  7.65573 -11.5467 -44.29
LeftArm  -9.80184 23.0034 -27.8373
LeftForeArm  34.2036 -12.5507 -4.55322
LeftHand  -0.25398 0.0180481 5.50724
RightShoulder  5.02119 8.4118 36.1545
RightArm  4.84545 -4.90121 42.8913
RightForeArm  9.20686 15.8441 6.4734
RightHand  -1.17924 3.32045 -15.8833
LeftUpLeg  -17.4018 16.7231 -9.19191
LeftLeg  19.8003 4.53485 2.15521
LeftFoot  0.17463 -0.42008 4.15538
LeftToes  1.06247e-005 4.65855e-005 -8.18501e-006
730
root  31.7419 38.788 20.1851 -46.4262 -78.9328 41.9562
RightUpLeg  0.913584 3.92959 -13.188
RightLeg  54.275 -0.939357 -1.77631
RightFoot  13.3457 -1.40512 6.75008
RightToes  0.00048216 0.542163 -0.142577
Spine  8.82876 1.28303 -4.93219
Spine1  9.55793 1.89857 -3.43585
HEad  -3.0326 -16.6131 3.70888
LeftShoulder1  7.68783 -11.6277 -44.2356
LeftArm  -9.25774 22.9412 -28.1946
LeftForeArm  33.5938 -13.3555 -4.54298
LeftHand  -0.25398 0.0180481 5.50724
RightShoulder  5.10059 8.60411 36.1411
RightArm  -1.06404 -5.72087 42.5045
RightForeArm  17.1536 10.9044 7.54074
RightHand  -0.653595 0.544359 -12.6998
LeftUpLeg  -14.5794 17.3792 -9.87557
LeftLeg  20.0701 4.69457 2.13244
LeftFoot  -2.50966 -0.297317 4.04636
LeftToes  1.06247e-005 4.65855e-005 -8.18501e-006
731
root  30.4184 39.0937 20.8376 -47.6583 -79.172 42.7117
RightUpLeg  -4.42871 4.33232 -12.5828
RightLeg  59.9166 -1.35899 -3.02456
RightFoot  13.5671 -0.872656 4.34538
RightToes  0.00048216 0.542163 -0.142577
Spine  9.47535 1.02048 -5.40256
Spine1  9.57275 1.35547 -2.75188
HEad  -2.99564 -15.8116 2.86857
LeftShoulder1  7.69631 -11.6967 -44.0761
LeftArm  -8.23216 22.6683 -28.7108
LeftForeArm  33.4546 -14.8422 -4.42174
LeftHand  -0.25398 0.0180481 5.50724
RightShoulder  5.15674 8.69432 36.2867
RightArm  -2.80537 -6.88288 41.6876
RightForeArm  23.2718 8.97795 7.36305
RightHand  -0.258965 -2.02947 -8.68363
LeftUpLeg  -10.7612 16.8326 -9.23954
LeftLeg  18.8167 5.32469 1.46236
LeftFoot  -4.08416 -0.207 3.64219
LeftToes  1.06247e-005 4.65855e-005 -8.18501e-006
